# xmcd
#
# Track frame offsets:
#	150
#	13442
#	34691
#	52768
#	69170
#	85575
#	99694
#	115470
#	129452
#	147521
#	162767
#	181471
#	197521
#	215805
#	232757
#	262759
#
# Disc length: 3509 seconds
#
# Revision: 1
# Processed by: cddbd v1.5.2PL0 Copyright (c) Steve Scherf et al.
# Submitted via: audiograbber 1.83.01
#
DISCID=d60db310
DTITLE=Various Artist - ASK Guy Country Vol1,1
DYEAR=2006
DGENRE=Karaoke
TTITLE0=Toby Keith - A Little Less Talk
TTITLE1=Kenny Chesney - A Lot Of Things Different
TTITLE2=Kenny Chesney - Big Star
TTITLE3=Toby Keith - Country Comes To Town
TTITLE4=Toby Keith - Courtesy Of The Red White And Blue
TTITLE5=Kenny Chesney - Don't Happen Twice
TTITLE6=Brooks And Dunn - Every River
TTITLE7=Toby Keith - He Aint Worth Missing
TTITLE8=Chris Cagle - I Beathe In, I Breathe Out
TTITLE9=Steve Azar - I Don't Have To Be Me Till Monday
TTITLE10=Kenny Chesney - I Lost It
TTITLE11=Darryl Worley - I Miss My Friend
TTITLE12=Brad Paisley - I Wish You'd Stay
TTITLE13=Gary Allen - Mom To Mom
TTITLE14=Montgomery Gentry - My Town
TTITLE15=data - Data Track
EXTD=
EXTT0=
EXTT1=
EXTT2=
EXTT3=
EXTT4=
EXTT5=
EXTT6=
EXTT7=
EXTT8=
EXTT9=
EXTT10=
EXTT11=
EXTT12=
EXTT13=
EXTT14=
EXTT15=
PLAYORDER=
